<svg width="69" height="69" viewBox="0 0 69 69" fill="none" xmlns="http://www.w3.org/2000/svg">
<path d="M58.1944 14.9087C53.8365 12.9091 49.1633 11.4359 44.2772 10.5922C44.1882 10.5759 44.0993 10.6166 44.0534 10.698C43.4524 11.7669 42.7867 13.1615 42.3205 14.2576C37.0652 13.4708 31.8368 13.4708 26.6892 14.2576C26.2229 13.1371 25.533 11.7669 24.9293 10.698C24.8835 10.6193 24.7946 10.5786 24.7056 10.5922C19.8222 11.4332 15.149 12.9065 10.7884 14.9087C10.7506 14.925 10.7183 14.9522 10.6968 14.9874C1.83269 28.2302 -0.595549 41.1474 0.595665 53.9045C0.601055 53.9669 0.636091 54.0266 0.684602 54.0646C6.53287 58.3594 12.1979 60.9668 17.7578 62.695C17.8467 62.7221 17.941 62.6896 17.9976 62.6163C19.3128 60.8203 20.4852 58.9265 21.4904 56.935C21.5497 56.8184 21.4931 56.68 21.3718 56.6339C19.5123 55.9285 17.7416 55.0684 16.0383 54.0917C15.9036 54.0131 15.8928 53.8204 16.0167 53.7281C16.3752 53.4595 16.7337 53.18 17.076 52.8979C17.1379 52.8464 17.2242 52.8355 17.297 52.868C28.4868 57.9769 40.6011 57.9769 51.6588 52.868C51.7316 52.8328 51.8179 52.8437 51.8825 52.8952C52.2249 53.1774 52.5833 53.4595 52.9444 53.7281C53.0684 53.8204 53.0603 54.0131 52.9256 54.0917C51.2223 55.0874 49.4516 55.9285 47.5893 56.6312C47.4681 56.6773 47.4142 56.8184 47.4735 56.935C48.5002 58.9237 49.6726 60.8175 50.9635 62.6136C51.0175 62.6896 51.1144 62.7221 51.2034 62.695C56.7902 60.9668 62.4552 58.3594 68.3035 54.0646C68.3547 54.0266 68.3871 53.9696 68.3925 53.9072C69.8181 39.1586 66.0046 26.3473 58.2833 14.9901C58.2644 14.9522 58.2321 14.925 58.1944 14.9087ZM23.1614 46.1368C19.7925 46.1368 17.0166 43.0439 17.0166 39.2455C17.0166 35.4471 19.7387 32.3542 23.1614 32.3542C26.611 32.3542 29.36 35.4742 29.3061 39.2455C29.3061 43.0439 26.584 46.1368 23.1614 46.1368ZM45.8807 46.1368C42.5119 46.1368 39.736 43.0439 39.736 39.2455C39.736 35.4471 42.4579 32.3542 45.8807 32.3542C49.3304 32.3542 52.0793 35.4742 52.0254 39.2455C52.0254 43.0439 49.3304 46.1368 45.8807 46.1368Z" fill="#5865F2"/>
</svg>
