<svg width="69" height="70" viewBox="0 0 69 70" fill="none" xmlns="http://www.w3.org/2000/svg">
<path fill-rule="evenodd" clip-rule="evenodd" d="M5.85651 32.9387C23.6858 25.0582 35.5748 19.8629 41.5234 17.3528C58.5081 10.1859 62.0374 8.94096 64.3377 8.89985C64.8436 8.89081 65.9749 9.01801 66.7076 9.62122C67.3264 10.1306 67.4966 10.8186 67.5781 11.3015C67.6595 11.7844 67.761 12.8845 67.6803 13.744C66.7599 23.555 62.7774 47.3635 60.7512 58.3519C59.8939 63.0015 58.2058 64.5605 56.5716 64.713C53.0199 65.0446 50.3229 62.3318 46.883 60.0442C41.5002 56.4646 38.4592 54.2362 33.2342 50.7432C27.1958 46.7063 31.1103 44.4876 34.5515 40.8616C35.4521 39.9126 51.1008 25.4727 51.4036 24.1627C51.4415 23.9989 51.4767 23.3882 51.1191 23.0658C50.7615 22.7433 50.2337 22.8536 49.8528 22.9413C49.3129 23.0656 40.7137 28.8317 24.0553 40.2396C21.6145 41.9399 19.4036 42.7684 17.4228 42.725C15.2391 42.6771 11.0385 41.4724 7.91578 40.4426C4.08565 39.1795 1.04154 38.5117 1.30662 36.3667C1.44468 35.2494 2.96132 34.1067 5.85651 32.9387Z" fill="url(#paint0_linear_1_219)"/>
<defs>
<linearGradient id="paint0_linear_1_219" x1="34.5002" y1="8.89941" x2="34.5002" y2="64.3266" gradientUnits="userSpaceOnUse">
<stop stop-color="#2AABEE"/>
<stop offset="1" stop-color="#229ED9"/>
</linearGradient>
</defs>
</svg>
