<svg width="70" height="69" viewBox="0 0 70 69" fill="none" xmlns="http://www.w3.org/2000/svg">
<path d="M61.4163 20.6446C61.4433 21.2518 61.4433 21.8314 61.4433 22.4386C61.4703 40.8478 47.749 62.0999 22.6562 62.0999C15.2553 62.0999 7.98944 59.9195 1.75 55.8347C2.83042 55.9727 3.91084 56.0279 4.99127 56.0279C11.1227 56.0279 17.092 53.9303 21.9269 50.0387C16.0926 49.9283 10.9606 46.0366 9.1779 40.351C11.2307 40.765 13.3375 40.6822 15.3363 40.1026C8.98883 38.833 4.42405 33.1198 4.39703 26.4682C4.39703 26.413 4.39703 26.3578 4.39703 26.3026C6.28777 27.379 8.42161 27.9862 10.5825 28.0414C4.61312 23.9566 2.74939 15.8146 6.36881 9.43893C13.3105 18.1606 23.5205 23.4322 34.4868 24.0118C33.3794 19.1818 34.892 14.1033 38.4303 10.6809C43.9135 5.40932 52.5569 5.68532 57.7429 11.2881C60.7951 10.6809 63.7392 9.52173 66.4133 7.89333C65.3869 11.1225 63.253 13.8549 60.4169 15.5938C63.118 15.2626 65.765 14.5173 68.25 13.4133C66.4133 16.2286 64.0904 18.6574 61.4163 20.6446Z" fill="#1D9BF0"/>
</svg>
